<?xml version="1.0" encoding="UTF-8"?>
<svg xmlns="http://www.w3.org/2000/svg" xmlns:xlink="http://www.w3.org/1999/xlink" width="2658.38pt" height="986.72pt" viewBox="0 0 2658.38 986.72" version="1.1">
<defs>
<clipPath id="clip1">
  <path d="M 0 0 L 2582 0 L 2582 986.71875 L 0 986.71875 Z M 0 0 "/>
</clipPath>
<clipPath id="clip2">
  <path d="M 2574 232 L 2658.378906 232 L 2658.378906 318 L 2574 318 Z M 2574 232 "/>
</clipPath>
</defs>
<g id="surface1">
<g clip-path="url(#clip1)" clip-rule="nonzero">
<path style=" stroke:none;fill-rule:nonzero;fill:rgb(100%,100%,100%);fill-opacity:1;" d="M 2509.308594 452.0625 L 2506.808594 449.703125 C 2510.46875 448.84375 2514.03125 447.6875 2517.511719 446.230469 C 2520.96875 444.769531 2524.289063 443.035156 2527.46875 441.019531 C 2530.648438 439.007813 2533.640625 436.738281 2536.429688 434.226563 C 2539.230469 431.710938 2541.800781 428.980469 2544.140625 426.03125 C 2546.480469 423.085938 2548.558594 419.96875 2550.371094 416.671875 C 2552.191406 413.378906 2553.71875 409.957031 2554.960938 406.40625 C 2556.199219 402.855469 2557.140625 399.222656 2557.769531 395.515625 C 2558.410156 391.808594 2558.730469 388.070313 2558.738281 384.3125 L 2558.738281 242.910156 C 2558.730469 240.714844 2558.628906 238.519531 2558.398438 236.328125 C 2558.179688 234.140625 2557.859375 231.96875 2557.429688 229.8125 C 2557 227.65625 2556.460938 225.523438 2555.820313 223.421875 C 2555.179688 221.316406 2554.441406 219.25 2553.589844 217.21875 C 2552.75 215.1875 2551.808594 213.203125 2550.769531 211.265625 C 2549.730469 209.324219 2548.601563 207.441406 2547.378906 205.613281 C 2546.148438 203.785156 2544.839844 202.023438 2543.449219 200.320313 C 2542.050781 198.625 2540.578125 196.996094 2539.019531 195.441406 C 2537.46875 193.886719 2535.839844 192.410156 2534.140625 191.015625 C 2532.441406 189.621094 2530.671875 188.3125 2528.851563 187.089844 C 2527.019531 185.867188 2525.128906 184.738281 2523.191406 183.699219 C 2521.25 182.660156 2519.269531 181.722656 2517.238281 180.878906 C 2515.210938 180.035156 2513.140625 179.296875 2511.03125 178.65625 C 2508.929688 178.015625 2506.800781 177.480469 2504.640625 177.050781 C 2502.488281 176.617188 2500.308594 176.292969 2498.121094 176.074219 C 2495.929688 175.855469 2493.738281 175.746094 2491.539063 175.742188 L 2357.789063 175.742188 C 2344.058594 175.75 2330.449219 177.027344 2316.960938 179.578125 C 2303.46875 182.128906 2290.328125 185.90625 2277.539063 190.914063 C 2264.761719 195.921875 2252.550781 202.070313 2240.910156 209.359375 C 2229.28125 216.648438 2218.421875 224.953125 2208.339844 234.277344 C 2206.328125 175.191406 2163.179688 131.023438 2106.128906 130.878906 C 2102.789063 130.886719 2099.449219 131.050781 2096.121094 131.382813 C 2092.789063 131.714844 2089.480469 132.210938 2086.199219 132.863281 C 2082.921875 133.519531 2079.671875 134.335938 2076.46875 135.308594 C 2073.269531 136.28125 2070.121094 137.40625 2067.03125 138.691406 C 2063.941406 139.96875 2060.921875 141.398438 2057.960938 142.976563 C 2055.011719 144.554688 2052.148438 146.269531 2049.359375 148.128906 C 2046.578125 149.988281 2043.890625 151.976563 2041.300781 154.097656 C 2038.710938 156.21875 2036.230469 158.460938 2033.859375 160.824219 C 2031.488281 163.191406 2029.25 165.664063 2027.121094 168.246094 C 2024.988281 170.832031 2023 173.511719 2021.128906 176.292969 C 2019.269531 179.074219 2017.539063 181.9375 2015.960938 184.882813 C 2014.378906 187.832031 2012.941406 190.851563 2011.648438 193.941406 C 2010.371094 197.027344 2009.230469 200.175781 2008.25 203.375 C 2007.269531 206.574219 2006.449219 209.816406 2005.789063 213.097656 C 2005.121094 216.375 2004.621094 219.679688 2004.28125 223.011719 C 2003.941406 226.339844 2003.769531 229.679688 2003.75 233.023438 C 2003.75 235.527344 2003.988281 237.96875 2004.128906 240.441406 C 1995.910156 240.882813 1988.039063 242.78125 1980.519531 246.140625 C 1973 249.496094 1966.328125 254.09375 1960.519531 259.921875 L 1889.980469 330.285156 L 1889.980469 240.875 C 1889.96875 238.675781 1889.859375 236.480469 1889.648438 234.289063 C 1889.429688 232.101563 1889.101563 229.929688 1888.671875 227.769531 C 1888.238281 225.613281 1887.699219 223.480469 1887.058594 221.375 C 1886.421875 219.269531 1885.679688 217.199219 1884.839844 215.167969 C 1883.988281 213.136719 1883.050781 211.148438 1882.011719 209.210938 C 1880.96875 207.269531 1879.839844 205.386719 1878.621094 203.554688 C 1877.398438 201.726563 1876.089844 199.960938 1874.691406 198.261719 C 1873.289063 196.5625 1871.820313 194.933594 1870.261719 193.378906 C 1868.699219 191.820313 1867.078125 190.34375 1865.378906 188.949219 C 1863.671875 187.554688 1861.910156 186.242188 1860.078125 185.019531 C 1858.25 183.800781 1856.359375 182.667969 1854.421875 181.628906 C 1852.480469 180.59375 1850.488281 179.652344 1848.460938 178.808594 C 1846.429688 177.96875 1844.359375 177.226563 1842.261719 176.585938 C 1840.148438 175.945313 1838.019531 175.410156 1835.859375 174.980469 C 1833.699219 174.550781 1831.53125 174.226563 1829.339844 174.007813 C 1827.148438 173.789063 1824.949219 173.683594 1822.75 173.679688 L 1687.839844 173.679688 L 1687.839844 102.007813 C 1687.828125 97.839844 1687.289063 93.742188 1686.210938 89.71875 C 1685.128906 85.691406 1683.550781 81.875 1681.46875 78.261719 C 1679.390625 74.652344 1676.878906 71.375 1673.929688 68.421875 C 1670.988281 65.472656 1667.71875 62.953125 1664.109375 60.863281 L 1570.140625 6.402344 C 1566.519531 4.308594 1562.691406 2.71875 1558.660156 1.632813 C 1554.621094 0.546875 1550.511719 0.00390625 1546.339844 0.00390625 C 1542.160156 0.00390625 1538.050781 0.546875 1534.011719 1.632813 C 1529.980469 2.71875 1526.148438 4.308594 1522.539063 6.402344 L 1427.660156 61.035156 C 1424.039063 63.128906 1420.75 65.65625 1417.800781 68.613281 C 1414.839844 71.570313 1412.320313 74.859375 1410.230469 78.480469 C 1408.128906 82.101563 1406.550781 85.933594 1405.46875 89.972656 C 1404.390625 94.011719 1403.851563 98.121094 1403.851563 102.300781 L 1403.851563 210.664063 C 1403.851563 214.84375 1404.398438 218.949219 1405.480469 222.984375 C 1406.570313 227.019531 1408.148438 230.847656 1410.238281 234.464844 C 1412.328125 238.078125 1414.859375 241.367188 1417.808594 244.324219 C 1420.761719 247.277344 1424.050781 249.800781 1427.660156 251.898438 L 1498.609375 292.601563 L 1482.238281 292.601563 C 1480.039063 292.605469 1477.839844 292.714844 1475.660156 292.933594 C 1473.46875 293.148438 1471.300781 293.472656 1469.140625 293.902344 C 1466.980469 294.332031 1464.851563 294.867188 1462.75 295.507813 C 1460.640625 296.148438 1458.570313 296.886719 1456.539063 297.730469 C 1454.511719 298.574219 1452.519531 299.515625 1450.578125 300.550781 C 1448.648438 301.589844 1446.761719 302.71875 1444.929688 303.941406 C 1443.109375 305.164063 1441.339844 306.472656 1439.640625 307.867188 C 1437.941406 309.261719 1436.320313 310.738281 1434.761719 312.292969 C 1433.199219 313.847656 1431.730469 315.476563 1430.328125 317.175781 C 1428.941406 318.875 1427.628906 320.640625 1426.410156 322.46875 C 1425.191406 324.296875 1424.050781 326.179688 1423.019531 328.117188 C 1421.980469 330.058594 1421.039063 332.042969 1420.199219 334.074219 C 1419.351563 336.105469 1418.609375 338.175781 1417.96875 340.277344 C 1417.339844 342.382813 1416.800781 344.515625 1416.371094 346.671875 C 1415.941406 348.828125 1415.621094 351 1415.398438 353.191406 C 1415.179688 355.378906 1415.070313 357.570313 1415.070313 359.769531 L 1415.070313 370.324219 C 1402.019531 357.933594 1387.910156 346.894531 1372.75 337.191406 C 1357.589844 327.496094 1341.648438 319.316406 1324.929688 312.664063 C 1308.210938 306.007813 1291.011719 300.992188 1273.328125 297.617188 C 1255.648438 294.246094 1237.820313 292.570313 1219.820313 292.601563 L 1211.511719 292.601563 L 1211.511719 240.875 C 1211.5 238.675781 1211.390625 236.480469 1211.171875 234.292969 C 1210.960938 232.101563 1210.628906 229.929688 1210.199219 227.773438 C 1209.769531 225.613281 1209.230469 223.484375 1208.589844 221.378906 C 1207.949219 219.273438 1207.210938 217.207031 1206.371094 215.175781 C 1205.519531 213.140625 1204.578125 211.15625 1203.539063 209.21875 C 1202.511719 207.277344 1201.378906 205.394531 1200.148438 203.566406 C 1198.929688 201.734375 1197.621094 199.972656 1196.230469 198.273438 C 1194.828125 196.570313 1193.351563 194.941406 1191.800781 193.386719 C 1190.238281 191.832031 1188.621094 190.355469 1186.910156 188.960938 C 1185.210938 187.5625 1183.449219 186.253906 1181.621094 185.03125 C 1179.789063 183.808594 1177.910156 182.679688 1175.96875 181.640625 C 1174.03125 180.601563 1172.039063 179.660156 1170.011719 178.816406 C 1167.980469 177.976563 1165.910156 177.234375 1163.808594 176.59375 C 1161.699219 175.953125 1159.570313 175.417969 1157.410156 174.984375 C 1155.25 174.554688 1153.078125 174.230469 1150.890625 174.011719 C 1148.699219 173.792969 1146.511719 173.683594 1144.308594 173.679688 L 1002.96875 173.679688 C 1000.769531 173.683594 998.570313 173.789063 996.382813 174.007813 C 994.195313 174.226563 992.019531 174.550781 989.863281 174.980469 C 987.703125 175.410156 985.574219 175.945313 983.46875 176.585938 C 981.363281 177.226563 979.296875 177.96875 977.261719 178.8125 C 975.230469 179.652344 973.242188 180.59375 971.304688 181.632813 C 969.363281 182.667969 967.480469 183.800781 965.648438 185.023438 C 963.820313 186.246094 962.054688 187.554688 960.355469 188.949219 C 958.652344 190.347656 957.027344 191.824219 955.46875 193.378906 C 953.914063 194.933594 952.4375 196.5625 951.042969 198.261719 C 949.644531 199.964844 948.335938 201.730469 947.113281 203.558594 C 945.890625 205.386719 944.761719 207.273438 943.722656 209.210938 C 942.6875 211.152344 941.742188 213.136719 940.902344 215.171875 C 940.058594 217.203125 939.316406 219.273438 938.679688 221.378906 C 938.039063 223.480469 937.503906 225.613281 937.074219 227.769531 C 936.640625 229.929688 936.316406 232.101563 936.101563 234.289063 C 935.882813 236.480469 935.773438 238.675781 935.769531 240.875 L 935.769531 292.484375 L 803.152344 292.484375 C 795.652344 292.492188 788.359375 293.730469 781.269531 296.191406 C 774.183594 298.652344 767.695313 302.203125 761.808594 306.851563 C 755.992188 302.441406 749.628906 299.078125 742.710938 296.757813 C 735.792969 294.441406 728.6875 293.289063 721.390625 293.300781 L 579.902344 293.300781 C 577.050781 293.3125 574.210938 293.519531 571.382813 293.910156 C 568.703125 286.949219 565.765625 280.101563 562.566406 273.359375 C 559.371094 266.617188 555.929688 260.007813 552.234375 253.527344 C 548.539063 247.046875 544.609375 240.714844 540.441406 234.523438 C 536.273438 228.339844 531.878906 222.320313 527.257813 216.464844 C 522.632813 210.609375 517.800781 204.933594 512.75 199.441406 C 507.703125 193.949219 502.457031 188.652344 497.011719 183.554688 C 491.5625 178.460938 485.9375 173.570313 480.121094 168.898438 C 474.308594 164.222656 468.328125 159.773438 462.183594 155.546875 C 456.035156 151.320313 449.738281 147.332031 443.289063 143.578125 C 436.84375 139.828125 430.265625 136.324219 423.554688 133.066406 C 416.84375 129.808594 410.019531 126.808594 403.082031 124.0625 C 396.144531 121.316406 389.117188 118.835938 381.992188 116.617188 C 374.871094 114.402344 367.675781 112.457031 360.40625 110.78125 C 353.136719 109.105469 345.816406 107.703125 338.441406 106.578125 C 331.066406 105.453125 323.660156 104.605469 316.222656 104.035156 C 308.785156 103.46875 301.335938 103.179688 293.878906 103.167969 L 220.722656 103.167969 C 219.5 103.167969 218.132813 103.023438 216.648438 103.023438 L 71.269531 103.023438 C 68.933594 103.027344 66.605469 103.144531 64.285156 103.371094 C 61.964844 103.601563 59.660156 103.945313 57.371094 104.402344 C 55.082031 104.859375 52.824219 105.425781 50.589844 106.105469 C 48.359375 106.78125 46.164063 107.566406 44.011719 108.464844 C 41.855469 109.355469 39.75 110.351563 37.691406 111.449219 C 35.636719 112.550781 33.636719 113.75 31.695313 115.046875 C 29.757813 116.34375 27.886719 117.730469 26.082031 119.210938 C 24.277344 120.691406 22.550781 122.253906 20.902344 123.902344 C 19.25 125.554688 17.683594 127.28125 16.207031 129.082031 C 14.722656 130.886719 13.335938 132.753906 12.039063 134.695313 C 10.742188 136.636719 9.542969 138.632813 8.441406 140.6875 C 7.34375 142.746094 6.34375 144.851563 5.449219 147.007813 C 4.554688 149.160156 3.769531 151.355469 3.089844 153.585938 C 2.410156 155.816406 1.839844 158.078125 1.386719 160.367188 C 0.925781 162.652344 0.582031 164.960938 0.351563 167.28125 C 0.121094 169.601563 0.00390625 171.929688 0 174.261719 L 0 780.566406 C 0.00390625 782.894531 0.125 785.222656 0.355469 787.539063 C 0.585938 789.863281 0.929688 792.167969 1.386719 794.453125 C 1.847656 796.738281 2.417969 798.992188 3.09375 801.226563 C 3.773438 803.453125 4.5625 805.648438 5.457031 807.804688 C 6.347656 809.953125 7.347656 812.054688 8.449219 814.113281 C 9.546875 816.167969 10.746094 818.164063 12.042969 820.101563 C 13.34375 822.039063 14.730469 823.910156 16.210938 825.710938 C 17.6875 827.515625 19.253906 829.234375 20.902344 830.882813 C 22.550781 832.53125 24.277344 834.09375 26.082031 835.570313 C 27.882813 837.050781 29.753906 838.4375 31.691406 839.734375 C 33.632813 841.027344 35.628906 842.226563 37.683594 843.324219 C 39.738281 844.425781 41.84375 845.421875 44 846.3125 C 46.152344 847.203125 48.34375 847.992188 50.574219 848.667969 C 52.808594 849.34375 55.066406 849.910156 57.351563 850.367188 C 59.636719 850.824219 61.941406 851.167969 64.261719 851.398438 C 66.582031 851.628906 68.90625 851.742188 71.238281 851.746094 L 216.621094 851.746094 C 218.953125 851.742188 221.277344 851.628906 223.597656 851.398438 C 225.917969 851.167969 228.222656 850.824219 230.507813 850.367188 C 232.792969 849.910156 235.050781 849.34375 237.28125 848.667969 C 239.511719 847.992188 241.707031 847.203125 243.859375 846.3125 C 246.015625 845.421875 248.117188 844.425781 250.175781 843.324219 C 252.230469 842.226563 254.226563 841.027344 256.164063 839.734375 C 258.105469 838.4375 259.976563 837.050781 261.777344 835.570313 C 263.582031 834.09375 265.308594 832.53125 266.957031 830.882813 C 268.605469 829.234375 270.171875 827.515625 271.648438 825.710938 C 273.128906 823.910156 274.519531 822.039063 275.8125 820.101563 C 277.109375 818.164063 278.3125 816.167969 279.410156 814.113281 C 280.511719 812.054688 281.511719 809.953125 282.402344 807.804688 C 283.296875 805.648438 284.085938 803.453125 284.761719 801.226563 C 285.441406 798.992188 286.011719 796.738281 286.472656 794.453125 C 286.929688 792.167969 287.273438 789.863281 287.503906 787.539063 C 287.734375 785.222656 287.855469 782.894531 287.859375 780.566406 L 287.859375 776.03125 L 477.523438 965.667969 C 480.839844 968.996094 484.445313 971.972656 488.34375 974.585938 C 492.246094 977.207031 496.363281 979.417969 500.695313 981.222656 C 505.03125 983.027344 509.503906 984.398438 514.109375 985.320313 C 518.714844 986.246094 523.363281 986.710938 528.058594 986.71875 C 532.757813 986.75 537.410156 986.316406 542.019531 985.414063 C 546.628906 984.515625 551.105469 983.167969 555.445313 981.375 C 559.789063 979.585938 563.910156 977.382813 567.8125 974.765625 C 571.710938 972.152344 575.316406 969.179688 578.625 965.84375 L 681.351563 863.113281 C 687.3125 857.179688 692.0625 850.394531 695.597656 842.761719 C 711.433594 846.113281 727.449219 847.789063 743.644531 847.789063 L 889.222656 847.789063 C 890.847656 847.789063 892.476563 847.789063 894.074219 847.617188 L 944.667969 847.617188 C 954.933594 847.609375 964.671875 845.351563 973.890625 840.84375 C 983.109375 845.351563 992.851563 847.609375 1003.109375 847.617188 L 1144.480469 847.617188 C 1145.378906 847.617188 1146.339844 847.617188 1147.390625 847.617188 L 1220.078125 847.617188 C 1238.078125 847.644531 1255.921875 845.972656 1273.601563 842.59375 C 1291.269531 839.21875 1308.46875 834.199219 1325.191406 827.542969 C 1341.921875 820.882813 1357.859375 812.703125 1373.011719 803.003906 C 1388.171875 793.304688 1402.28125 782.257813 1415.328125 769.863281 L 1415.328125 780.394531 C 1415.328125 782.59375 1415.441406 784.785156 1415.660156 786.976563 C 1415.871094 789.164063 1416.199219 791.339844 1416.628906 793.496094 C 1417.050781 795.652344 1417.589844 797.785156 1418.230469 799.890625 C 1418.871094 802 1419.609375 804.066406 1420.449219 806.097656 C 1421.289063 808.132813 1422.230469 810.117188 1423.269531 812.058594 C 1424.308594 813.996094 1425.429688 815.886719 1426.660156 817.714844 C 1427.878906 819.542969 1429.191406 821.3125 1430.578125 823.011719 C 1431.980469 824.710938 1433.460938 826.339844 1435.011719 827.898438 C 1436.558594 829.457031 1438.191406 830.929688 1439.890625 832.324219 C 1441.589844 833.722656 1443.359375 835.03125 1445.191406 836.257813 C 1447.011719 837.480469 1448.898438 838.613281 1450.839844 839.652344 C 1452.78125 840.691406 1454.761719 841.628906 1456.800781 842.472656 C 1458.828125 843.316406 1460.890625 844.0625 1463 844.703125 C 1465.109375 845.339844 1467.238281 845.878906 1469.390625 846.3125 C 1471.550781 846.742188 1473.71875 847.066406 1475.910156 847.28125 C 1478.101563 847.503906 1480.300781 847.613281 1482.5 847.617188 L 1623.839844 847.617188 C 1634.21875 847.609375 1644.050781 845.304688 1653.351563 840.695313 C 1662.308594 844.890625 1671.730469 846.992188 1681.621094 847.007813 L 1822.960938 847.007813 C 1825.160156 846.996094 1827.351563 846.878906 1829.539063 846.65625 C 1831.71875 846.433594 1833.890625 846.101563 1836.050781 845.664063 C 1838.199219 845.230469 1840.328125 844.691406 1842.441406 844.046875 C 1844.539063 843.398438 1846.601563 842.652344 1848.628906 841.804688 C 1850.660156 840.957031 1852.640625 840.015625 1854.578125 838.972656 C 1856.511719 837.929688 1858.390625 836.796875 1860.21875 835.566406 C 1862.039063 834.34375 1863.800781 833.03125 1865.5 831.632813 C 1867.199219 830.230469 1868.820313 828.753906 1870.378906 827.195313 C 1871.929688 825.636719 1873.398438 824.007813 1874.789063 822.304688 C 1876.179688 820.601563 1877.480469 818.839844 1878.699219 817.007813 C 1879.921875 815.175781 1881.050781 813.289063 1882.078125 811.351563 C 1883.121094 809.410156 1884.050781 807.425781 1884.890625 805.390625 C 1885.730469 803.359375 1886.46875 801.289063 1887.101563 799.183594 C 1887.738281 797.078125 1888.269531 794.949219 1888.699219 792.789063 C 1889.121094 790.636719 1889.441406 788.460938 1889.660156 786.273438 C 1889.871094 784.089844 1889.980469 781.894531 1889.980469 779.691406 L 1889.980469 689.558594 L 2012.328125 842.527344 C 2015.070313 845.96875 2018.109375 849.109375 2021.460938 851.949219 C 2024.820313 854.785156 2028.421875 857.273438 2032.261719 859.40625 C 2036.109375 861.535156 2040.121094 863.269531 2044.308594 864.605469 C 2048.488281 865.945313 2052.769531 866.863281 2057.140625 867.359375 C 2058.101563 867.359375 2059.089844 867.566406 2060.050781 867.589844 C 2061.628906 867.710938 2063.238281 867.765625 2064.839844 867.765625 C 2072.351563 867.75 2079.648438 866.519531 2086.75 864.074219 C 2093.839844 861.628906 2100.359375 858.101563 2106.28125 853.488281 L 2106.828125 853.054688 L 2154.828125 814.644531 C 2157.808594 819.648438 2161.371094 824.183594 2165.519531 828.261719 C 2169.671875 832.335938 2174.269531 835.8125 2179.320313 838.695313 C 2184.378906 841.574219 2189.710938 843.761719 2195.339844 845.253906 C 2200.960938 846.746094 2206.679688 847.496094 2212.5 847.496094 L 2357.609375 847.496094 C 2480.929688 847.496094 2581.269531 745.238281 2581.269531 619.480469 C 2581.269531 611.667969 2580.878906 603.878906 2580.089844 596.101563 C 2579.300781 588.328125 2578.121094 580.617188 2576.550781 572.96875 C 2574.96875 565.316406 2573.011719 557.761719 2570.671875 550.308594 C 2568.328125 542.855469 2565.621094 535.539063 2562.53125 528.359375 C 2559.441406 521.179688 2556 514.179688 2552.210938 507.351563 C 2548.410156 500.523438 2544.28125 493.902344 2539.808594 487.5 C 2535.339844 481.089844 2530.550781 474.925781 2525.460938 469.003906 C 2520.359375 463.082031 2514.980469 457.433594 2509.308594 452.0625 Z M 314.550781 419.871094 L 269.132813 464.242188 L 269.132813 372.300781 L 293.878906 372.300781 C 295.734375 372.304688 297.570313 372.484375 299.394531 372.851563 C 301.214844 373.214844 302.980469 373.753906 304.695313 374.464844 C 306.410156 375.175781 308.039063 376.046875 309.582031 377.082031 C 311.125 378.113281 312.550781 379.285156 313.863281 380.601563 C 315.175781 381.910156 316.347656 383.34375 317.378906 384.886719 C 318.40625 386.429688 319.277344 388.058594 319.988281 389.773438 C 320.699219 391.488281 321.234375 393.257813 321.597656 395.078125 C 321.960938 396.898438 322.140625 398.738281 322.140625 400.59375 C 322.171875 404.179688 321.53125 407.636719 320.21875 410.96875 C 318.90625 414.304688 317.015625 417.273438 314.550781 419.871094 Z M 490.492188 598.023438 L 490.957031 597.589844 C 506.457031 582.054688 519.957031 564.949219 531.460938 546.269531 L 531.460938 618.347656 C 531.460938 625.625 531.832031 632.886719 532.566406 640.128906 Z M 1219.851563 593.285156 L 1192.78125 593.285156 L 1192.78125 546.761719 L 1219.851563 546.761719 C 1221.378906 546.761719 1222.890625 546.910156 1224.390625 547.207031 C 1225.878906 547.507813 1227.339844 547.945313 1228.75 548.53125 C 1230.160156 549.117188 1231.5 549.832031 1232.769531 550.683594 C 1234.039063 551.527344 1235.21875 552.496094 1236.300781 553.574219 C 1237.378906 554.65625 1238.339844 555.828125 1239.191406 557.101563 C 1240.039063 558.371094 1240.75 559.710938 1241.339844 561.121094 C 1241.921875 562.53125 1242.371094 563.984375 1242.660156 565.484375 C 1242.960938 566.980469 1243.109375 568.492188 1243.109375 570.023438 C 1243.109375 571.550781 1242.960938 573.0625 1242.660156 574.5625 C 1242.371094 576.058594 1241.921875 577.511719 1241.339844 578.925781 C 1240.75 580.335938 1240.039063 581.675781 1239.191406 582.945313 C 1238.339844 584.214844 1237.378906 585.390625 1236.300781 586.472656 C 1235.21875 587.550781 1234.039063 588.515625 1232.769531 589.363281 C 1231.5 590.214844 1230.160156 590.929688 1228.75 591.511719 C 1227.339844 592.097656 1225.878906 592.539063 1224.390625 592.835938 C 1222.890625 593.136719 1221.378906 593.285156 1219.851563 593.285156 Z M 2212.46875 590.375 C 2209.929688 590.378906 2207.421875 590.582031 2204.910156 590.976563 C 2202.410156 591.375 2199.949219 591.96875 2197.539063 592.746094 C 2195.128906 593.53125 2192.800781 594.496094 2190.539063 595.644531 C 2188.289063 596.792969 2186.128906 598.113281 2184.078125 599.601563 C 2182.03125 601.085938 2180.101563 602.722656 2178.308594 604.511719 C 2176.511719 606.300781 2174.871094 608.214844 2173.371094 610.257813 C 2171.878906 612.308594 2170.550781 614.453125 2169.390625 616.707031 C 2168.230469 618.960938 2167.261719 621.292969 2166.46875 623.695313 L 2074.671875 508.933594 L 2142.070313 441.648438 C 2147.320313 436.378906 2151.148438 430.222656 2153.558594 423.1875 C 2154.738281 436.617188 2157.191406 449.816406 2160.921875 462.777344 C 2164.640625 475.738281 2169.558594 488.226563 2175.679688 500.238281 C 2181.808594 512.253906 2189.019531 523.574219 2197.320313 534.203125 C 2205.621094 544.828125 2214.851563 554.566406 2225.03125 563.421875 L 2257.191406 590.492188 L 2212.46875 590.375 "/>
</g>
<path style=" stroke:none;fill-rule:nonzero;fill:rgb(15.299988%,18.399048%,17.298889%);fill-opacity:1;" d="M 2496.539063 465.695313 L 2492.101563 461.507813 L 2458.160156 432.78125 L 2491.480469 432.78125 C 2494.660156 432.777344 2497.808594 432.464844 2500.929688 431.839844 C 2504.050781 431.21875 2507.078125 430.296875 2510.019531 429.078125 C 2512.960938 427.859375 2515.738281 426.367188 2518.390625 424.601563 C 2521.03125 422.832031 2523.480469 420.824219 2525.730469 418.578125 C 2527.980469 416.328125 2529.988281 413.886719 2531.761719 411.238281 C 2533.53125 408.597656 2535.019531 405.808594 2536.238281 402.871094 C 2537.460938 399.933594 2538.378906 396.90625 2539.011719 393.789063 C 2539.628906 390.667969 2539.949219 387.519531 2539.960938 384.339844 L 2539.960938 242.910156 C 2539.949219 239.730469 2539.628906 236.582031 2539.011719 233.464844 C 2538.378906 230.347656 2537.460938 227.320313 2536.238281 224.386719 C 2535.019531 221.445313 2533.53125 218.660156 2531.761719 216.019531 C 2529.988281 213.375 2527.980469 210.929688 2525.730469 208.683594 C 2523.480469 206.4375 2521.03125 204.429688 2518.390625 202.664063 C 2515.738281 200.898438 2512.949219 199.40625 2510.011719 198.191406 C 2507.078125 196.976563 2504.050781 196.054688 2500.929688 195.433594 C 2497.808594 194.8125 2494.660156 194.5 2491.480469 194.5 L 2357.730469 194.5 C 2249.128906 194.5 2160.011719 281.148438 2153.210938 390.273438 C 2150.78125 383.746094 2147.101563 378.027344 2142.160156 373.117188 L 2118.660156 349.621094 C 2153.269531 337.265625 2189.46875 283.355469 2189.46875 238.40625 C 2189.46875 187.871094 2153.53125 149.632813 2105.808594 149.519531 C 2103.078125 149.523438 2100.351563 149.664063 2097.628906 149.9375 C 2094.910156 150.210938 2092.210938 150.617188 2089.53125 151.15625 C 2086.851563 151.695313 2084.199219 152.363281 2081.589844 153.160156 C 2078.96875 153.957031 2076.398438 154.882813 2073.878906 155.929688 C 2071.351563 156.980469 2068.878906 158.148438 2066.480469 159.441406 C 2064.058594 160.730469 2061.71875 162.136719 2059.449219 163.660156 C 2057.179688 165.179688 2054.980469 166.808594 2052.871094 168.542969 C 2050.761719 170.273438 2048.738281 172.109375 2046.800781 174.042969 C 2044.871094 175.976563 2043.03125 178 2041.300781 180.113281 C 2039.558594 182.226563 2037.941406 184.417969 2036.421875 186.691406 C 2034.898438 188.964844 2033.488281 191.304688 2032.199219 193.714844 C 2030.910156 196.125 2029.738281 198.59375 2028.691406 201.117188 C 2027.640625 203.644531 2026.71875 206.214844 2025.921875 208.828125 C 2025.121094 211.441406 2024.449219 214.089844 2023.921875 216.773438 C 2023.378906 219.449219 2022.96875 222.152344 2022.691406 224.871094 C 2022.421875 227.59375 2022.28125 230.320313 2022.28125 233.054688 C 2022.171875 243.601563 2024.109375 253.757813 2028.089844 263.527344 C 2025.859375 262.492188 2023.550781 261.636719 2021.191406 260.949219 C 2018.828125 260.269531 2016.421875 259.773438 2013.980469 259.457031 C 2011.539063 259.144531 2009.078125 259.015625 2006.621094 259.078125 C 2004.160156 259.140625 2001.71875 259.386719 1999.289063 259.820313 C 1996.871094 260.253906 1994.488281 260.871094 1992.160156 261.667969 C 1989.828125 262.46875 1987.578125 263.4375 1985.398438 264.578125 C 1983.210938 265.722656 1981.128906 267.023438 1979.148438 268.488281 C 1977.171875 269.945313 1975.308594 271.550781 1973.570313 273.296875 L 1871.191406 375.644531 L 1871.191406 240.875 C 1871.191406 237.691406 1870.878906 234.542969 1870.261719 231.421875 C 1869.640625 228.300781 1868.710938 225.269531 1867.5 222.332031 C 1866.28125 219.390625 1864.78125 216.601563 1863.019531 213.953125 C 1861.25 211.308594 1859.238281 208.859375 1856.988281 206.609375 C 1854.738281 204.359375 1852.289063 202.351563 1849.640625 200.585938 C 1847 198.816406 1844.210938 197.320313 1841.269531 196.101563 C 1838.328125 194.882813 1835.300781 193.964844 1832.179688 193.34375 C 1829.058594 192.71875 1825.910156 192.40625 1822.71875 192.40625 L 1681.378906 192.40625 C 1676.808594 192.410156 1672.328125 193.0625 1667.949219 194.355469 L 1667.949219 102.007813 C 1667.949219 99.582031 1667.628906 97.199219 1667 94.859375 C 1666.371094 92.519531 1665.449219 90.296875 1664.238281 88.195313 C 1663.03125 86.097656 1661.558594 84.191406 1659.851563 82.472656 C 1658.140625 80.757813 1656.230469 79.292969 1654.140625 78.074219 L 1560.050781 23.617188 C 1557.941406 22.398438 1555.710938 21.476563 1553.359375 20.84375 C 1551 20.214844 1548.609375 19.898438 1546.179688 19.898438 C 1543.738281 19.898438 1541.351563 20.214844 1539 20.84375 C 1536.648438 21.476563 1534.421875 22.398438 1532.308594 23.617188 L 1437.550781 78.25 C 1435.441406 79.464844 1433.519531 80.933594 1431.800781 82.648438 C 1430.078125 84.367188 1428.609375 86.28125 1427.398438 88.386719 C 1426.179688 90.492188 1425.261719 92.71875 1424.621094 95.066406 C 1424 97.417969 1423.679688 99.808594 1423.679688 102.238281 L 1423.679688 210.636719 C 1423.679688 213.070313 1424 215.460938 1424.628906 217.8125 C 1425.269531 220.160156 1426.191406 222.386719 1427.410156 224.492188 C 1428.628906 226.597656 1430.109375 228.507813 1431.828125 230.226563 C 1433.550781 231.941406 1435.46875 233.410156 1437.578125 234.625 L 1532.039063 288.96875 C 1534.148438 290.167969 1536.371094 291.082031 1538.710938 291.699219 C 1541.050781 292.324219 1543.429688 292.636719 1545.859375 292.636719 C 1548.28125 292.636719 1550.660156 292.324219 1553 291.699219 C 1555.339844 291.082031 1557.570313 290.167969 1559.671875 288.96875 L 1632.878906 246.808594 L 1632.878906 312.347656 C 1629.808594 311.738281 1626.710938 311.429688 1623.578125 311.414063 L 1482.269531 311.414063 C 1479.089844 311.417969 1475.941406 311.734375 1472.820313 312.355469 C 1469.699219 312.980469 1466.671875 313.898438 1463.730469 315.117188 C 1460.789063 316.335938 1458 317.828125 1455.359375 319.597656 C 1452.71875 321.363281 1450.269531 323.371094 1448.019531 325.617188 C 1445.769531 327.867188 1443.761719 330.316406 1441.988281 332.957031 C 1440.21875 335.601563 1438.730469 338.390625 1437.511719 341.328125 C 1436.289063 344.265625 1435.371094 347.289063 1434.738281 350.410156 C 1434.121094 353.527344 1433.800781 356.679688 1433.789063 359.855469 L 1433.789063 420.015625 C 1427.679688 411.617188 1421.089844 403.605469 1414.03125 395.984375 C 1406.96875 388.363281 1399.480469 381.183594 1391.570313 374.445313 C 1383.671875 367.710938 1375.390625 361.460938 1366.738281 355.699219 C 1358.089844 349.941406 1349.140625 344.707031 1339.871094 340.003906 C 1330.609375 335.304688 1321.101563 331.160156 1311.339844 327.582031 C 1301.589844 324.003906 1291.660156 321.007813 1281.558594 318.601563 C 1271.449219 316.191406 1261.230469 314.390625 1250.910156 313.1875 C 1240.589844 311.984375 1230.238281 311.394531 1219.851563 311.414063 L 1192.78125 311.414063 L 1192.78125 240.875 C 1192.78125 237.695313 1192.460938 234.542969 1191.839844 231.425781 C 1191.21875 228.304688 1190.300781 225.277344 1189.078125 222.339844 C 1187.871094 219.398438 1186.378906 216.609375 1184.609375 213.964844 C 1182.839844 211.316406 1180.828125 208.871094 1178.578125 206.621094 C 1176.339844 204.371094 1173.890625 202.363281 1171.25 200.59375 C 1168.601563 198.824219 1165.808594 197.328125 1162.871094 196.109375 C 1159.929688 194.894531 1156.910156 193.96875 1153.789063 193.347656 C 1150.671875 192.722656 1147.519531 192.40625 1144.339844 192.40625 L 1002.96875 192.40625 C 999.785156 192.40625 996.636719 192.722656 993.515625 193.347656 C 990.394531 193.96875 987.367188 194.894531 984.425781 196.109375 C 981.488281 197.328125 978.695313 198.824219 976.050781 200.59375 C 973.40625 202.359375 970.960938 204.367188 968.710938 206.617188 C 966.460938 208.867188 964.449219 211.316406 962.683594 213.960938 C 960.914063 216.605469 959.421875 219.398438 958.203125 222.335938 C 956.984375 225.273438 956.0625 228.304688 955.4375 231.425781 C 954.8125 234.542969 954.5 237.691406 954.496094 240.875 L 954.496094 312.289063 C 951.210938 311.570313 947.886719 311.214844 944.523438 311.214844 L 803.152344 311.214844 C 799.027344 311.21875 794.96875 311.742188 790.972656 312.785156 C 786.980469 313.824219 783.183594 315.351563 779.578125 317.363281 C 775.976563 319.371094 772.679688 321.800781 769.691406 324.648438 C 766.707031 327.496094 764.128906 330.675781 761.949219 334.183594 C 759.753906 330.785156 757.171875 327.710938 754.203125 324.960938 C 751.234375 322.207031 747.972656 319.863281 744.417969 317.933594 C 740.863281 316 737.121094 314.535156 733.199219 313.542969 C 729.277344 312.546875 725.289063 312.050781 721.246094 312.058594 L 579.902344 312.058594 C 572.785156 312.050781 566.003906 313.558594 559.550781 316.5625 C 557.328125 309.5625 554.835938 302.664063 552.066406 295.859375 C 549.300781 289.058594 546.269531 282.378906 542.976563 275.816406 C 539.683594 269.253906 536.136719 262.828125 532.335938 256.546875 C 528.535156 250.261719 524.492188 244.140625 520.207031 238.179688 C 515.925781 232.214844 511.410156 226.429688 506.671875 220.820313 C 501.929688 215.214844 496.976563 209.800781 491.808594 204.582031 C 486.640625 199.367188 481.273438 194.363281 475.714844 189.566406 C 470.148438 184.777344 464.40625 180.210938 458.484375 175.871094 C 452.5625 171.527344 446.476563 167.429688 440.230469 163.570313 C 433.980469 159.710938 427.59375 156.101563 421.0625 152.746094 C 414.53125 149.390625 407.878906 146.300781 401.101563 143.46875 C 394.328125 140.636719 387.453125 138.074219 380.476563 135.789063 C 373.496094 133.503906 366.441406 131.492188 359.304688 129.761719 C 352.167969 128.027344 344.976563 126.582031 337.726563 125.417969 C 330.476563 124.257813 323.1875 123.382813 315.871094 122.792969 C 308.550781 122.203125 301.222656 121.902344 293.878906 121.894531 L 71.269531 121.894531 C 67.835938 121.90625 64.433594 122.253906 61.070313 122.933594 C 57.707031 123.613281 54.4375 124.613281 51.269531 125.933594 C 48.101563 127.253906 45.089844 128.867188 42.238281 130.777344 C 39.386719 132.6875 36.746094 134.855469 34.316406 137.28125 C 31.890625 139.710938 29.71875 142.351563 27.8125 145.203125 C 25.902344 148.054688 24.285156 151.066406 22.96875 154.234375 C 21.648438 157.40625 20.648438 160.671875 19.96875 164.035156 C 19.289063 167.402344 18.941406 170.800781 18.929688 174.230469 L 18.929688 780.566406 C 18.941406 784.003906 19.285156 787.410156 19.96875 790.785156 C 20.648438 794.152344 21.652344 797.425781 22.972656 800.601563 C 24.296875 803.777344 25.917969 806.792969 27.835938 809.648438 C 29.75 812.503906 31.925781 815.148438 34.359375 817.574219 C 36.796875 820.003906 39.445313 822.175781 42.304688 824.078125 C 45.167969 825.988281 48.1875 827.601563 51.367188 828.914063 C 54.542969 830.230469 57.820313 831.222656 61.195313 831.894531 C 64.566406 832.566406 67.972656 832.902344 71.414063 832.902344 L 216.796875 832.902344 C 220.230469 832.890625 223.625 832.546875 226.992188 831.863281 C 230.355469 831.183594 233.625 830.1875 236.792969 828.863281 C 239.960938 827.546875 242.972656 825.933594 245.824219 824.019531 C 248.679688 822.109375 251.316406 819.941406 253.742188 817.515625 C 256.171875 815.085938 258.339844 812.445313 260.25 809.59375 C 262.160156 806.742188 263.773438 803.730469 265.097656 800.5625 C 266.414063 797.394531 267.414063 794.128906 268.09375 790.765625 C 268.773438 787.398438 269.117188 783.996094 269.132813 780.566406 L 269.132813 730.785156 L 490.871094 952.496094 C 495.800781 957.445313 501.488281 961.265625 507.9375 963.945313 C 514.386719 966.632813 521.105469 967.980469 528.089844 967.992188 C 535.058594 968.015625 541.757813 966.691406 548.195313 964.023438 C 554.636719 961.359375 560.308594 957.554688 565.222656 952.609375 L 667.976563 849.855469 C 672.007813 845.851563 675.289063 841.3125 677.828125 836.230469 C 680.367188 831.148438 682.023438 825.796875 682.804688 820.167969 C 702.617188 826.027344 722.855469 828.933594 743.515625 828.894531 L 889.074219 828.894531 C 890.441406 828.894531 891.980469 828.894531 893.230469 828.71875 L 944.523438 828.71875 C 949.804688 828.71875 954.945313 827.871094 959.949219 826.179688 C 964.949219 824.484375 969.550781 822.039063 973.746094 818.832031 C 977.9375 822.039063 982.539063 824.492188 987.542969 826.183594 C 992.546875 827.878906 997.6875 828.722656 1002.96875 828.71875 L 1219.941406 828.71875 C 1230.328125 828.738281 1240.679688 828.148438 1251 826.945313 C 1261.320313 825.742188 1271.539063 823.941406 1281.640625 821.53125 C 1291.75 819.125 1301.679688 816.132813 1311.429688 812.550781 C 1321.191406 808.972656 1330.699219 804.828125 1339.960938 800.125 C 1349.230469 795.425781 1358.179688 790.191406 1366.828125 784.429688 C 1375.480469 778.671875 1383.75 772.421875 1391.660156 765.6875 C 1399.570313 758.945313 1407.058594 751.769531 1414.121094 744.144531 C 1421.179688 736.527344 1427.769531 728.515625 1433.878906 720.117188 L 1433.878906 780.246094 C 1433.890625 783.421875 1434.199219 786.566406 1434.828125 789.683594 C 1435.449219 792.792969 1436.371094 795.820313 1437.589844 798.753906 C 1438.800781 801.683594 1440.300781 804.472656 1442.058594 807.113281 C 1443.828125 809.753906 1445.828125 812.195313 1448.078125 814.441406 C 1450.320313 816.6875 1452.769531 818.695313 1455.398438 820.464844 C 1458.039063 822.230469 1460.828125 823.722656 1463.761719 824.941406 C 1466.691406 826.160156 1469.71875 827.082031 1472.828125 827.710938 C 1475.941406 828.332031 1479.089844 828.652344 1482.269531 828.65625 L 1623.609375 828.65625 C 1628.898438 828.65625 1634.050781 827.8125 1639.058594 826.113281 C 1644.078125 824.417969 1648.679688 821.957031 1652.890625 818.742188 C 1657.019531 821.773438 1661.519531 824.085938 1666.390625 825.679688 C 1671.261719 827.273438 1676.261719 828.074219 1681.378906 828.074219 L 1822.71875 828.074219 C 1825.910156 828.074219 1829.058594 827.765625 1832.179688 827.144531 C 1835.300781 826.515625 1838.328125 825.597656 1841.269531 824.378906 C 1844.210938 823.160156 1847 821.667969 1849.640625 819.898438 C 1852.289063 818.132813 1854.738281 816.121094 1856.988281 813.871094 C 1859.238281 811.621094 1861.25 809.175781 1863.019531 806.527344 C 1864.78125 803.882813 1866.28125 801.089844 1867.5 798.152344 C 1868.710938 795.210938 1869.640625 792.179688 1870.261719 789.058594 C 1870.878906 785.941406 1871.191406 782.785156 1871.191406 779.605469 L 1871.191406 636.144531 L 2026.929688 830.957031 C 2030.921875 835.964844 2035.71875 840.015625 2041.320313 843.117188 C 2046.921875 846.222656 2052.898438 848.136719 2059.261719 848.863281 L 2061.210938 849.039063 C 2062.429688 849.039063 2063.621094 849.039063 2064.808594 849.039063 C 2070.308594 849.015625 2075.648438 848.089844 2080.839844 846.273438 C 2086.019531 844.453125 2090.769531 841.839844 2095.078125 838.425781 L 2164.140625 783.183594 C 2164.328125 786.230469 2164.800781 789.234375 2165.558594 792.191406 C 2166.308594 795.152344 2167.339844 798.015625 2168.640625 800.78125 C 2169.941406 803.546875 2171.480469 806.164063 2173.28125 808.640625 C 2175.070313 811.109375 2177.078125 813.394531 2179.300781 815.484375 C 2181.53125 817.582031 2183.921875 819.445313 2186.5 821.085938 C 2189.078125 822.726563 2191.789063 824.109375 2194.628906 825.238281 C 2197.460938 826.363281 2200.378906 827.214844 2203.390625 827.789063 C 2206.378906 828.367188 2209.410156 828.652344 2212.46875 828.65625 L 2357.589844 828.65625 C 2470.578125 828.65625 2562.519531 734.769531 2562.519531 619.308594 C 2562.519531 604.9375 2561.070313 590.714844 2558.179688 576.636719 C 2555.28125 562.5625 2551 548.921875 2545.328125 535.714844 C 2539.660156 522.511719 2532.710938 510.015625 2524.5 498.222656 C 2516.28125 486.433594 2506.960938 475.589844 2496.539063 465.695313 Z M 314.550781 419.871094 L 269.132813 464.242188 L 269.132813 372.300781 L 293.878906 372.300781 C 295.734375 372.304688 297.570313 372.484375 299.394531 372.851563 C 301.214844 373.214844 302.980469 373.753906 304.695313 374.464844 C 306.410156 375.175781 308.039063 376.046875 309.582031 377.082031 C 311.125 378.113281 312.550781 379.285156 313.863281 380.601563 C 315.175781 381.910156 316.347656 383.34375 317.378906 384.886719 C 318.40625 386.429688 319.277344 388.058594 319.988281 389.773438 C 320.699219 391.488281 321.234375 393.257813 321.597656 395.078125 C 321.960938 396.898438 322.140625 398.738281 322.140625 400.59375 C 322.171875 404.179688 321.53125 407.636719 320.21875 410.96875 C 318.90625 414.304688 317.015625 417.273438 314.550781 419.871094 Z M 490.492188 598.023438 L 490.957031 597.589844 C 506.457031 582.054688 519.957031 564.949219 531.460938 546.269531 L 531.460938 618.347656 C 531.460938 625.625 531.832031 632.886719 532.566406 640.128906 Z M 1219.851563 593.285156 L 1192.78125 593.285156 L 1192.78125 546.761719 L 1219.851563 546.761719 C 1221.378906 546.761719 1222.890625 546.910156 1224.390625 547.207031 C 1225.878906 547.507813 1227.339844 547.945313 1228.75 548.53125 C 1230.160156 549.117188 1231.5 549.832031 1232.769531 550.683594 C 1234.039063 551.527344 1235.21875 552.496094 1236.300781 553.574219 C 1237.378906 554.65625 1238.339844 555.828125 1239.191406 557.101563 C 1240.039063 558.371094 1240.75 559.710938 1241.339844 561.121094 C 1241.921875 562.53125 1242.371094 563.984375 1242.660156 565.484375 C 1242.960938 566.980469 1243.109375 568.492188 1243.109375 570.023438 C 1243.109375 571.550781 1242.960938 573.0625 1242.660156 574.5625 C 1242.371094 576.058594 1241.921875 577.511719 1241.339844 578.925781 C 1240.75 580.335938 1240.039063 581.675781 1239.191406 582.945313 C 1238.339844 584.214844 1237.378906 585.390625 1236.300781 586.472656 C 1235.21875 587.550781 1234.039063 588.515625 1232.769531 589.363281 C 1231.5 590.214844 1230.160156 590.929688 1228.75 591.511719 C 1227.339844 592.097656 1225.878906 592.539063 1224.390625 592.835938 C 1222.890625 593.136719 1221.378906 593.285156 1219.851563 593.285156 Z M 2212.46875 590.375 C 2209.929688 590.378906 2207.421875 590.582031 2204.910156 590.976563 C 2202.410156 591.375 2199.949219 591.96875 2197.539063 592.746094 C 2195.128906 593.53125 2192.800781 594.496094 2190.539063 595.644531 C 2188.289063 596.792969 2186.128906 598.113281 2184.078125 599.601563 C 2182.03125 601.085938 2180.101563 602.722656 2178.308594 604.511719 C 2176.511719 606.300781 2174.871094 608.214844 2173.371094 610.257813 C 2171.878906 612.308594 2170.550781 614.453125 2169.390625 616.707031 C 2168.230469 618.960938 2167.261719 621.292969 2166.46875 623.695313 L 2074.671875 508.933594 L 2142.070313 441.648438 C 2147.320313 436.378906 2151.148438 430.222656 2153.558594 423.1875 C 2154.738281 436.617188 2157.191406 449.816406 2160.921875 462.777344 C 2164.640625 475.738281 2169.558594 488.226563 2175.679688 500.238281 C 2181.808594 512.253906 2189.019531 523.574219 2197.320313 534.203125 C 2205.621094 544.828125 2214.851563 554.566406 2225.03125 563.421875 L 2257.191406 590.492188 L 2212.46875 590.375 "/>
<g clip-path="url(#clip2)" clip-rule="nonzero">
<path style=" stroke:none;fill-rule:nonzero;fill:rgb(15.299988%,18.399048%,17.298889%);fill-opacity:1;" d="M 2616.339844 232.96875 C 2623.710938 233.007813 2630.601563 234.820313 2637.039063 238.40625 C 2643.851563 242.003906 2649.089844 247.191406 2652.769531 253.960938 C 2656.5 260.492188 2658.371094 267.523438 2658.378906 275.039063 C 2658.378906 282.5 2656.53125 289.46875 2652.828125 295.945313 C 2649.191406 302.675781 2644.011719 307.878906 2637.300781 311.5625 C 2634.109375 313.382813 2630.738281 314.761719 2627.191406 315.703125 C 2623.640625 316.644531 2620.03125 317.117188 2616.351563 317.117188 C 2612.679688 317.117188 2609.070313 316.644531 2605.519531 315.703125 C 2601.96875 314.761719 2598.601563 313.382813 2595.398438 311.5625 C 2588.691406 307.875 2583.511719 302.667969 2579.851563 295.945313 C 2576.121094 289.476563 2574.25 282.507813 2574.238281 275.039063 C 2574.261719 267.511719 2576.148438 260.484375 2579.910156 253.960938 C 2583.601563 247.195313 2588.851563 242.011719 2595.671875 238.40625 C 2602.089844 234.824219 2608.980469 233.011719 2616.339844 232.96875 Z M 2616.339844 239.917969 C 2610.199219 239.949219 2604.449219 241.472656 2599.101563 244.480469 C 2593.449219 247.511719 2589.078125 251.835938 2585.980469 257.449219 C 2582.859375 262.84375 2581.269531 268.660156 2581.210938 274.898438 C 2581.21875 281.128906 2582.78125 286.945313 2585.898438 292.339844 C 2588.96875 297.929688 2593.308594 302.261719 2598.890625 305.339844 C 2601.550781 306.859375 2604.359375 308.015625 2607.308594 308.800781 C 2610.269531 309.589844 2613.28125 309.980469 2616.339844 309.980469 C 2619.398438 309.980469 2622.410156 309.589844 2625.359375 308.800781 C 2628.320313 308.015625 2631.128906 306.859375 2633.78125 305.339844 C 2639.371094 302.265625 2643.691406 297.933594 2646.75 292.339844 C 2648.289063 289.691406 2649.449219 286.882813 2650.238281 283.925781 C 2651.03125 280.96875 2651.429688 277.957031 2651.429688 274.898438 C 2651.429688 271.832031 2651.03125 268.824219 2650.238281 265.863281 C 2649.449219 262.90625 2648.289063 260.101563 2646.75 257.449219 C 2643.679688 251.8125 2639.308594 247.488281 2633.640625 244.480469 C 2628.269531 241.464844 2622.5 239.945313 2616.339844 239.917969 Z M 2597.898438 298.304688 L 2597.898438 252.941406 L 2613.460938 252.941406 C 2617.398438 252.757813 2621.28125 253.171875 2625.089844 254.191406 C 2627.539063 254.980469 2629.480469 256.445313 2630.910156 258.582031 C 2632.289063 260.574219 2632.988281 262.785156 2633 265.210938 C 2633.039063 268.617188 2631.859375 271.523438 2629.449219 273.9375 C 2626.789063 276.621094 2623.578125 277.996094 2619.800781 278.066406 C 2621.21875 278.621094 2622.488281 279.417969 2623.609375 280.449219 C 2626.171875 283.203125 2628.398438 286.199219 2630.328125 289.433594 L 2635.851563 298.15625 L 2626.921875 298.15625 L 2622.910156 291.03125 C 2620.988281 287.054688 2618.449219 283.539063 2615.261719 280.476563 C 2613.5 279.304688 2611.558594 278.789063 2609.449219 278.9375 L 2605.261719 278.9375 L 2605.261719 298.15625 Z M 2605.261719 272.832031 L 2613.980469 272.832031 C 2617.101563 273.148438 2620 272.523438 2622.710938 270.941406 C 2624.308594 269.648438 2625.089844 267.96875 2625.03125 265.910156 C 2625.050781 264.585938 2624.671875 263.386719 2623.898438 262.304688 C 2623.121094 261.199219 2622.089844 260.414063 2620.820313 259.949219 C 2618.421875 259.289063 2615.980469 259.027344 2613.488281 259.164063 L 2605.261719 259.164063 L 2605.261719 272.832031 "/>
</g>
<path style=" stroke:none;fill-rule:nonzero;fill:rgb(0%,65.899658%,31.799316%);fill-opacity:1;" d="M 640.875 802.691406 L 435.945313 597.730469 L 463.132813 571.097656 L 463.828125 570.460938 C 468 566.285156 472.011719 561.964844 475.863281 557.496094 C 479.714844 553.027344 483.394531 548.421875 486.910156 543.683594 C 490.421875 538.941406 493.757813 534.078125 496.910156 529.09375 C 500.066406 524.109375 503.03125 519.019531 505.8125 513.8125 C 508.59375 508.609375 511.175781 503.308594 513.5625 497.917969 C 515.953125 492.523438 518.140625 487.046875 520.128906 481.492188 C 522.113281 475.9375 523.894531 470.316406 525.464844 464.628906 C 527.035156 458.941406 528.394531 453.203125 529.546875 447.421875 C 530.695313 441.632813 531.628906 435.8125 532.351563 429.957031 C 533.074219 424.101563 533.578125 418.226563 533.863281 412.335938 C 534.152344 406.445313 534.226563 400.546875 534.078125 394.652344 C 533.933594 388.753906 533.570313 382.867188 532.988281 376.996094 C 532.410156 371.125 531.617188 365.285156 530.609375 359.472656 C 529.597656 353.65625 528.378906 347.894531 526.941406 342.167969 C 525.507813 336.445313 523.867188 330.785156 522.011719 325.183594 C 520.160156 319.578125 518.105469 314.058594 515.851563 308.605469 C 513.589844 303.152344 511.132813 297.792969 508.480469 292.523438 C 505.824219 287.253906 502.980469 282.085938 499.945313 277.027344 C 496.910156 271.964844 493.691406 267.023438 490.292969 262.199219 C 486.894531 257.375 483.324219 252.683594 479.578125 248.121094 C 475.835938 243.5625 471.929688 239.144531 467.859375 234.871094 C 463.789063 230.597656 459.570313 226.480469 455.195313 222.519531 C 450.824219 218.558594 446.3125 214.761719 441.660156 211.132813 C 437.011719 207.5 432.230469 204.046875 427.324219 200.769531 C 422.417969 197.492188 417.398438 194.398438 412.265625 191.488281 C 407.128906 188.582031 401.894531 185.867188 396.5625 183.34375 C 391.230469 180.820313 385.8125 178.496094 380.308594 176.375 C 374.800781 174.253906 369.226563 172.335938 363.578125 170.621094 C 357.933594 168.910156 352.230469 167.40625 346.476563 166.113281 C 340.71875 164.820313 334.925781 163.742188 329.089844 162.878906 C 323.253906 162.011719 317.390625 161.359375 311.511719 160.925781 C 305.625 160.492188 299.734375 160.273438 293.835938 160.273438 L 218.074219 160.273438 C 217.609375 160.273438 217.113281 160.132813 216.648438 160.132813 L 71.269531 160.132813 C 70.339844 160.132813 69.417969 160.222656 68.511719 160.402344 C 67.601563 160.582031 66.71875 160.851563 65.859375 161.207031 C 65 161.5625 64.1875 161.996094 63.417969 162.511719 C 62.644531 163.027344 61.929688 163.613281 61.277344 164.269531 C 60.617188 164.925781 60.03125 165.640625 59.519531 166.410156 C 59.003906 167.183594 58.566406 167.996094 58.210938 168.855469 C 57.855469 169.710938 57.589844 170.59375 57.40625 171.503906 C 57.226563 172.414063 57.136719 173.335938 57.136719 174.261719 L 57.136719 780.566406 C 57.136719 781.488281 57.230469 782.410156 57.410156 783.316406 C 57.59375 784.222656 57.863281 785.105469 58.21875 785.960938 C 58.578125 786.8125 59.011719 787.628906 59.527344 788.394531 C 60.042969 789.164063 60.632813 789.878906 61.285156 790.527344 C 61.941406 791.183594 62.65625 791.765625 63.425781 792.277344 C 64.199219 792.789063 65.011719 793.226563 65.867188 793.574219 C 66.722656 793.929688 67.605469 794.195313 68.515625 794.371094 C 69.421875 794.550781 70.34375 794.640625 71.269531 794.640625 L 216.648438 794.640625 C 217.574219 794.640625 218.492188 794.550781 219.402344 794.371094 C 220.308594 794.195313 221.191406 793.929688 222.050781 793.574219 C 222.90625 793.226563 223.71875 792.789063 224.488281 792.277344 C 225.261719 791.765625 225.972656 791.183594 226.628906 790.527344 C 227.285156 789.878906 227.871094 789.164063 228.390625 788.394531 C 228.90625 787.628906 229.339844 786.8125 229.695313 785.960938 C 230.054688 785.105469 230.320313 784.222656 230.503906 783.316406 C 230.6875 782.410156 230.777344 781.488281 230.78125 780.566406 L 230.78125 333.921875 L 293.878906 333.921875 C 297.140625 333.925781 300.390625 334.167969 303.617188 334.648438 C 306.847656 335.128906 310.023438 335.84375 313.148438 336.789063 C 316.273438 337.738281 319.3125 338.90625 322.265625 340.300781 C 325.214844 341.695313 328.050781 343.296875 330.765625 345.105469 C 333.484375 346.917969 336.054688 348.914063 338.476563 351.105469 C 340.898438 353.289063 343.152344 355.644531 345.230469 358.164063 C 347.308594 360.683594 349.1875 363.339844 350.875 366.132813 C 352.5625 368.929688 354.035156 371.832031 355.300781 374.84375 C 356.558594 377.855469 357.59375 380.941406 358.402344 384.105469 C 359.207031 387.269531 359.78125 390.472656 360.117188 393.722656 C 360.453125 396.96875 360.550781 400.222656 360.410156 403.484375 C 360.269531 406.746094 359.890625 409.980469 359.273438 413.1875 C 358.65625 416.394531 357.808594 419.535156 356.730469 422.617188 C 355.652344 425.699219 354.355469 428.683594 352.835938 431.574219 C 351.320313 434.464844 349.601563 437.230469 347.675781 439.871094 C 345.753906 442.507813 343.648438 444.992188 341.359375 447.320313 L 290.679688 496.75 L 290.011719 497.390625 C 286.738281 500.660156 283.628906 504.089844 280.695313 507.667969 C 277.757813 511.246094 275.003906 514.957031 272.429688 518.808594 C 269.855469 522.65625 267.480469 526.621094 265.296875 530.707031 C 263.113281 534.789063 261.140625 538.972656 259.363281 543.246094 C 257.59375 547.523438 256.035156 551.875 254.691406 556.304688 C 253.347656 560.734375 252.222656 565.222656 251.320313 569.765625 C 250.417969 574.304688 249.738281 578.878906 249.285156 583.484375 C 248.832031 588.09375 248.605469 592.710938 248.605469 597.339844 C 248.605469 601.96875 248.832031 606.585938 249.285156 611.195313 C 249.738281 615.804688 250.417969 620.378906 251.320313 624.917969 C 252.222656 629.457031 253.347656 633.941406 254.691406 638.375 C 256.035156 642.804688 257.59375 647.15625 259.363281 651.4375 C 261.140625 655.710938 263.113281 659.890625 265.296875 663.972656 C 267.480469 668.058594 269.855469 672.023438 272.429688 675.871094 C 275.003906 679.722656 277.757813 683.433594 280.695313 687.015625 C 283.628906 690.59375 286.738281 694.019531 290.011719 697.292969 L 518.117188 925.367188 C 518.769531 926.023438 519.484375 926.609375 520.257813 927.121094 C 521.027344 927.640625 521.84375 928.070313 522.699219 928.429688 C 523.554688 928.78125 524.4375 929.050781 525.347656 929.230469 C 526.257813 929.410156 527.175781 929.5 528.105469 929.5 C 529.03125 929.5 529.949219 929.410156 530.859375 929.230469 C 531.769531 929.050781 532.652344 928.78125 533.507813 928.429688 C 534.363281 928.070313 535.179688 927.640625 535.949219 927.121094 C 536.722656 926.609375 537.433594 926.023438 538.09375 925.367188 L 640.875 822.839844 C 641.546875 822.1875 642.144531 821.472656 642.675781 820.695313 C 643.199219 819.917969 643.648438 819.097656 644.007813 818.234375 C 644.371094 817.367188 644.648438 816.476563 644.832031 815.558594 C 645.019531 814.636719 645.109375 813.707031 645.109375 812.765625 C 645.109375 811.832031 645.019531 810.902344 644.832031 809.980469 C 644.648438 809.0625 644.371094 808.167969 644.007813 807.304688 C 643.648438 806.4375 643.199219 805.617188 642.675781 804.839844 C 642.144531 804.066406 641.546875 803.351563 640.875 802.691406 "/>
<path style=" stroke:none;fill-rule:nonzero;fill:rgb(100%,100%,100%);fill-opacity:1;" d="M 944.988281 349.59375 L 803.617188 349.59375 C 802.28125 349.601563 800.992188 349.863281 799.757813 350.382813 C 798.523438 350.898438 797.4375 351.628906 796.488281 352.574219 C 795.546875 353.523438 794.816406 354.613281 794.304688 355.851563 C 793.789063 357.085938 793.53125 358.371094 793.53125 359.710938 L 793.53125 629.105469 L 744.097656 629.105469 C 742.582031 629.183594 741.109375 628.972656 739.679688 628.472656 C 738.246094 627.972656 736.960938 627.222656 735.824219 626.21875 C 734.6875 625.214844 733.78125 624.039063 733.105469 622.679688 C 732.429688 621.320313 732.03125 619.890625 731.914063 618.378906 L 731.914063 360.523438 C 731.914063 359.1875 731.660156 357.902344 731.144531 356.664063 C 730.636719 355.429688 729.90625 354.335938 728.960938 353.390625 C 728.015625 352.445313 726.921875 351.71875 725.6875 351.203125 C 724.449219 350.691406 723.164063 350.4375 721.824219 350.4375 L 580.367188 350.4375 C 579.03125 350.4375 577.742188 350.691406 576.507813 351.203125 C 575.269531 351.71875 574.179688 352.445313 573.234375 353.390625 C 572.289063 354.335938 571.558594 355.429688 571.046875 356.664063 C 570.535156 357.902344 570.277344 359.1875 570.277344 360.523438 L 570.277344 618.40625 C 570.277344 713.398438 648.203125 790.683594 744.011719 790.683594 L 889.566406 790.683594 C 890.234375 790.683594 890.890625 790.625 891.546875 790.507813 L 944.988281 790.507813 C 946.328125 790.507813 947.617188 790.253906 948.855469 789.738281 C 950.09375 789.226563 951.1875 788.492188 952.132813 787.542969 C 953.082031 786.597656 953.808594 785.5 954.316406 784.265625 C 954.828125 783.023438 955.082031 781.730469 955.078125 780.394531 L 955.078125 359.710938 C 955.078125 358.371094 954.820313 357.085938 954.3125 355.847656 C 953.800781 354.609375 953.070313 353.515625 952.125 352.566406 C 951.179688 351.617188 950.089844 350.886719 948.851563 350.371094 C 947.617188 349.855469 946.328125 349.597656 944.988281 349.59375 "/>
<path style=" stroke:none;fill-rule:nonzero;fill:rgb(0%,45.098877%,71.798706%);fill-opacity:1;" d="M 1219.851563 349.769531 L 1183.589844 349.769531 C 1182.25 349.769531 1180.960938 350.03125 1179.730469 350.546875 C 1178.488281 351.0625 1177.398438 351.792969 1176.460938 352.742188 C 1175.511719 353.691406 1174.78125 354.78125 1174.269531 356.019531 C 1173.761719 357.257813 1173.5 358.546875 1173.5 359.886719 L 1173.5 498.40625 C 1173.5 499.746094 1173.761719 501.03125 1174.269531 502.273438 C 1174.78125 503.511719 1175.511719 504.601563 1176.460938 505.554688 C 1177.398438 506.5 1178.488281 507.230469 1179.730469 507.746094 C 1180.960938 508.261719 1182.25 508.519531 1183.589844 508.527344 L 1219.851563 508.527344 C 1254.738281 508.527344 1282.890625 536.148438 1282.890625 570.082031 C 1282.890625 604.015625 1254.601563 631.632813 1219.851563 631.632813 L 1154.339844 631.632813 L 1154.339844 240.875 C 1154.339844 239.539063 1154.078125 238.25 1153.570313 237.015625 C 1153.058594 235.777344 1152.328125 234.6875 1151.378906 233.742188 C 1150.441406 232.796875 1149.351563 232.066406 1148.109375 231.554688 C 1146.878906 231.042969 1145.589844 230.785156 1144.25 230.785156 L 1002.96875 230.785156 C 1001.628906 230.785156 1000.339844 231.042969 999.105469 231.554688 C 997.871094 232.066406 996.777344 232.796875 995.835938 233.742188 C 994.886719 234.6875 994.15625 235.777344 993.644531 237.015625 C 993.132813 238.25 992.878906 239.539063 992.878906 240.875 L 992.878906 780.363281 C 992.878906 781.703125 993.132813 782.988281 993.644531 784.230469 C 994.15625 785.46875 994.886719 786.558594 995.832031 787.507813 C 996.777344 788.453125 997.867188 789.1875 999.105469 789.699219 C 1000.339844 790.21875 1001.628906 790.476563 1002.96875 790.484375 L 1219.851563 790.484375 C 1343.660156 790.484375 1444.410156 691.621094 1444.410156 570.167969 C 1444.410156 448.714844 1343.660156 349.769531 1219.851563 349.769531 "/>
<path style=" stroke:none;fill-rule:nonzero;fill:rgb(90.99884%,56.498718%,19.999695%);fill-opacity:1;" d="M 1623.609375 349.769531 L 1482.269531 349.769531 C 1480.929688 349.769531 1479.640625 350.023438 1478.410156 350.535156 C 1477.171875 351.050781 1476.078125 351.777344 1475.128906 352.722656 C 1474.191406 353.667969 1473.460938 354.761719 1472.941406 355.996094 C 1472.429688 357.230469 1472.179688 358.519531 1472.179688 359.855469 L 1472.179688 780.273438 C 1472.171875 781.617188 1472.429688 782.90625 1472.941406 784.144531 C 1473.449219 785.382813 1474.171875 786.480469 1475.121094 787.429688 C 1476.070313 788.378906 1477.160156 789.109375 1478.398438 789.621094 C 1479.640625 790.140625 1480.929688 790.394531 1482.269531 790.394531 L 1623.609375 790.394531 C 1624.949219 790.398438 1626.238281 790.144531 1627.480469 789.632813 C 1628.71875 789.117188 1629.820313 788.386719 1630.769531 787.4375 C 1631.71875 786.488281 1632.449219 785.394531 1632.960938 784.152344 C 1633.480469 782.910156 1633.730469 781.617188 1633.730469 780.273438 L 1633.730469 359.855469 C 1633.730469 358.515625 1633.46875 357.226563 1632.960938 355.988281 C 1632.441406 354.753906 1631.710938 353.65625 1630.761719 352.714844 C 1629.808594 351.765625 1628.71875 351.039063 1627.480469 350.527344 C 1626.238281 350.015625 1624.949219 349.765625 1623.609375 349.769531 "/>
<path style=" stroke:none;fill-rule:nonzero;fill:rgb(97.599792%,85.499573%,16.099548%);fill-opacity:1;" d="M 1822.71875 230.785156 L 1681.378906 230.785156 C 1680.039063 230.785156 1678.761719 231.042969 1677.519531 231.554688 C 1676.289063 232.066406 1675.191406 232.796875 1674.25 233.742188 C 1673.300781 234.6875 1672.570313 235.777344 1672.058594 237.015625 C 1671.550781 238.25 1671.289063 239.539063 1671.289063 240.875 L 1671.289063 779.691406 C 1671.289063 781.03125 1671.550781 782.316406 1672.058594 783.554688 C 1672.570313 784.792969 1673.300781 785.878906 1674.25 786.828125 C 1675.191406 787.773438 1676.289063 788.503906 1677.519531 789.011719 C 1678.761719 789.527344 1680.039063 789.785156 1681.378906 789.785156 L 1822.71875 789.785156 C 1824.058594 789.785156 1825.351563 789.53125 1826.589844 789.023438 C 1827.828125 788.515625 1828.929688 787.785156 1829.878906 786.839844 C 1830.828125 785.890625 1831.558594 784.800781 1832.070313 783.5625 C 1832.589844 782.324219 1832.839844 781.03125 1832.839844 779.691406 L 1832.839844 240.875 C 1832.839844 239.535156 1832.589844 238.246094 1832.070313 237.011719 C 1831.558594 235.769531 1830.828125 234.679688 1829.878906 233.730469 C 1828.929688 232.785156 1827.828125 232.054688 1826.589844 231.546875 C 1825.351563 231.035156 1824.058594 230.78125 1822.71875 230.785156 "/>
<path style=" stroke:none;fill-rule:nonzero;fill:rgb(97.599792%,85.499573%,16.099548%);fill-opacity:1;" d="M 2183.070313 705.984375 L 2023.148438 506.199219 L 2114.828125 414.550781 C 2115.769531 413.601563 2116.5 412.503906 2117.011719 411.265625 C 2117.519531 410.027344 2117.769531 408.738281 2117.769531 407.398438 C 2117.769531 406.058594 2117.519531 404.769531 2117.011719 403.527344 C 2116.5 402.289063 2115.769531 401.195313 2114.828125 400.242188 L 2015.011719 300.308594 C 2014.058594 299.359375 2012.96875 298.625 2011.730469 298.109375 C 2010.5 297.59375 2009.210938 297.335938 2007.871094 297.335938 C 2006.53125 297.335938 2005.238281 297.59375 2004 298.109375 C 2002.769531 298.625 2001.671875 299.359375 2000.730469 300.308594 L 1887.589844 413.476563 C 1884.710938 416.347656 1881.960938 419.351563 1879.359375 422.484375 C 1876.761719 425.617188 1874.320313 428.871094 1872.03125 432.238281 C 1869.738281 435.609375 1867.609375 439.078125 1865.660156 442.652344 C 1863.699219 446.222656 1861.921875 449.882813 1860.308594 453.625 C 1858.710938 457.367188 1857.289063 461.179688 1856.050781 465.058594 C 1854.808594 468.941406 1853.75 472.867188 1852.890625 476.847656 C 1852.019531 480.828125 1851.351563 484.84375 1850.878906 488.886719 C 1850.390625 492.933594 1850.109375 496.992188 1850.019531 501.0625 C 1849.929688 505.132813 1850.03125 509.203125 1850.328125 513.265625 C 1850.628906 517.324219 1851.121094 521.363281 1851.808594 525.378906 C 1852.5 529.394531 1853.371094 533.367188 1854.441406 537.296875 C 1855.511719 541.226563 1856.761719 545.097656 1858.199219 548.90625 C 1859.628906 552.722656 1861.25 556.453125 1863.050781 560.109375 C 1864.851563 563.761719 1866.808594 567.324219 1868.949219 570.792969 C 1871.089844 574.261719 1873.378906 577.617188 1875.839844 580.863281 C 1878.300781 584.113281 1880.910156 587.230469 1883.671875 590.230469 L 2056.910156 806.792969 C 2058.660156 808.960938 2060.921875 810.210938 2063.679688 810.546875 L 2064.808594 810.546875 C 2067.171875 810.519531 2069.269531 809.785156 2071.128906 808.335938 L 2181.621094 720 C 2182.628906 719.15625 2183.441406 718.15625 2184.058594 716.992188 C 2184.679688 715.832031 2185.058594 714.597656 2185.191406 713.289063 C 2185.328125 711.980469 2185.21875 710.691406 2184.839844 709.429688 C 2184.480469 708.164063 2183.878906 707.015625 2183.070313 705.984375 "/>
<path style=" stroke:none;fill-rule:nonzero;fill:rgb(85.499573%,21.199036%,28.199768%);fill-opacity:1;" d="M 2105.929688 187.984375 C 2102.960938 187.988281 2100.019531 188.28125 2097.109375 188.863281 C 2094.199219 189.445313 2091.371094 190.304688 2088.628906 191.441406 C 2085.890625 192.574219 2083.289063 193.96875 2080.820313 195.613281 C 2078.351563 197.261719 2076.070313 199.136719 2073.960938 201.230469 C 2071.859375 203.328125 2069.988281 205.609375 2068.328125 208.074219 C 2066.679688 210.539063 2065.28125 213.140625 2064.140625 215.882813 C 2063 218.621094 2062.140625 221.445313 2061.550781 224.355469 C 2060.960938 227.265625 2060.671875 230.203125 2060.660156 233.171875 C 2060.660156 255.238281 2076.269531 270.097656 2097.351563 274.109375 C 2097.351563 274.925781 2097.03125 309.441406 2099.328125 311.910156 C 2100.671875 313.304688 2102.308594 314.003906 2104.238281 314.003906 C 2115.640625 314.003906 2151.109375 274.777344 2151.109375 238.636719 C 2151.199219 209.328125 2132.269531 188.074219 2105.929688 187.984375 "/>
<path style=" stroke:none;fill-rule:nonzero;fill:rgb(85.499573%,21.199036%,28.199768%);fill-opacity:1;" d="M 2470.261719 493.609375 L 2465.691406 489.425781 L 2353.171875 394.457031 L 2491.371094 394.457031 C 2492.710938 394.464844 2493.988281 394.210938 2495.230469 393.703125 C 2496.460938 393.191406 2497.558594 392.464844 2498.5 391.519531 C 2499.449219 390.578125 2500.179688 389.488281 2500.691406 388.253906 C 2501.199219 387.019531 2501.460938 385.734375 2501.460938 384.398438 L 2501.460938 242.910156 C 2501.460938 241.574219 2501.199219 240.289063 2500.691406 239.054688 C 2500.179688 237.820313 2499.449219 236.730469 2498.5 235.785156 C 2497.558594 234.84375 2496.460938 234.117188 2495.230469 233.605469 C 2493.988281 233.101563 2492.710938 232.847656 2491.371094 232.851563 L 2357.609375 232.851563 C 2265.730469 232.851563 2190.980469 309.523438 2190.980469 403.761719 C 2190.929688 416.136719 2192.210938 428.375 2194.800781 440.476563 C 2197.390625 452.574219 2201.238281 464.261719 2206.351563 475.53125 C 2211.449219 486.804688 2217.699219 497.398438 2225.089844 507.328125 C 2232.480469 517.253906 2240.851563 526.277344 2250.179688 534.402344 L 2253.378906 537.167969 L 2362.648438 628.816406 L 2212.5 628.816406 C 2211.160156 628.8125 2209.871094 629.0625 2208.628906 629.574219 C 2207.398438 630.082031 2206.308594 630.808594 2205.359375 631.75 C 2204.421875 632.695313 2203.691406 633.785156 2203.171875 635.019531 C 2202.660156 636.253906 2202.410156 637.539063 2202.410156 638.875 L 2202.410156 780.246094 C 2202.398438 781.585938 2202.648438 782.875 2203.160156 784.117188 C 2203.679688 785.355469 2204.398438 786.449219 2205.351563 787.398438 C 2206.300781 788.347656 2207.390625 789.078125 2208.628906 789.59375 C 2209.871094 790.105469 2211.148438 790.363281 2212.5 790.363281 L 2357.609375 790.363281 C 2449.46875 790.363281 2524.191406 713.660156 2524.191406 619.425781 C 2524.199219 607.65625 2523.03125 596.011719 2520.660156 584.484375 C 2518.300781 572.953125 2514.800781 561.785156 2510.171875 550.972656 C 2505.53125 540.15625 2499.851563 529.917969 2493.128906 520.257813 C 2486.410156 510.597656 2478.789063 501.714844 2470.261719 493.609375 "/>
<path style="fill:none;stroke-width:2.1457;stroke-linecap:butt;stroke-linejoin:miter;stroke:rgb(100%,100%,100%);stroke-opacity:1;stroke-miterlimit:10;" d="M 21910.390625 5880.715625 L 21910.390625 5881.028125 Z M 21910.390625 5880.715625 " transform="matrix(0.1,0,0,-0.1,0,986.72)"/>
<path style=" stroke:none;fill-rule:nonzero;fill:rgb(97.599792%,85.499573%,16.099548%);fill-opacity:1;" d="M 1457.929688 99.070313 L 1478.28125 87.441406 C 1479.371094 86.878906 1480.53125 86.621094 1481.75 86.664063 C 1482.96875 86.714844 1484.101563 87.058594 1485.148438 87.699219 L 1505.5 99.332031 C 1506.488281 99.972656 1508.410156 101.714844 1505.5 103.519531 L 1484.820313 115.410156 C 1483.691406 115.992188 1482.480469 116.246094 1481.210938 116.171875 C 1479.929688 116.101563 1478.761719 115.710938 1477.699219 115.003906 L 1458.078125 103.691406 C 1455.460938 102.183594 1455.429688 100.671875 1457.929688 99.070313 "/>
<path style=" stroke:none;fill-rule:nonzero;fill:rgb(97.599792%,85.499573%,16.099548%);fill-opacity:1;" d="M 1490.261719 80.488281 L 1510.621094 68.714844 C 1511.699219 68.152344 1512.859375 67.894531 1514.078125 67.941406 C 1515.300781 67.988281 1516.441406 68.332031 1517.480469 68.976563 L 1537.828125 80.605469 C 1538.851563 81.246094 1540.738281 82.960938 1537.828125 84.792969 L 1517.160156 96.65625 C 1516.03125 97.246094 1514.828125 97.503906 1513.558594 97.4375 C 1512.289063 97.367188 1511.121094 96.984375 1510.058594 96.277344 L 1490.441406 84.96875 C 1487.789063 83.601563 1487.761719 82.089844 1490.261719 80.488281 "/>
<path style=" stroke:none;fill-rule:nonzero;fill:rgb(97.599792%,85.499573%,16.099548%);fill-opacity:1;" d="M 1522.558594 61.910156 L 1542.921875 50.105469 C 1544.011719 49.550781 1545.160156 49.300781 1546.390625 49.351563 C 1547.609375 49.402344 1548.738281 49.753906 1549.78125 50.394531 L 1570.140625 62.023438 C 1571.128906 62.664063 1573.039063 64.382813 1570.140625 66.214844 L 1549.460938 78.074219 C 1548.328125 78.664063 1547.128906 78.925781 1545.859375 78.855469 C 1544.589844 78.789063 1543.429688 78.402344 1542.371094 77.695313 L 1522.738281 66.390625 C 1520.089844 65.019531 1520.089844 63.507813 1522.558594 61.910156 "/>
<path style=" stroke:none;fill-rule:nonzero;fill:rgb(97.599792%,85.499573%,16.099548%);fill-opacity:1;" d="M 1489.941406 117.707031 L 1510.289063 105.933594 C 1511.378906 105.378906 1512.53125 105.125 1513.75 105.171875 C 1514.960938 105.21875 1516.089844 105.558594 1517.128906 106.191406 L 1537.480469 117.824219 C 1538.46875 118.464844 1540.390625 120.210938 1537.480469 122.011719 L 1516.808594 133.902344 C 1515.671875 134.484375 1514.46875 134.738281 1513.191406 134.664063 C 1511.921875 134.59375 1510.75 134.203125 1509.691406 133.496094 L 1490.058594 122.183594 C 1487.46875 120.820313 1487.441406 119.191406 1489.941406 117.707031 "/>
<path style=" stroke:none;fill-rule:nonzero;fill:rgb(97.599792%,85.499573%,16.099548%);fill-opacity:1;" d="M 1522.269531 99.128906 L 1542.628906 87.351563 C 1543.71875 86.789063 1544.871094 86.535156 1546.089844 86.582031 C 1547.320313 86.628906 1548.449219 86.972656 1549.488281 87.613281 L 1569.851563 99.242188 C 1570.859375 99.882813 1572.75 101.597656 1569.851563 103.429688 L 1549.171875 115.292969 C 1548.039063 115.886719 1546.828125 116.148438 1545.558594 116.078125 C 1544.28125 116.011719 1543.109375 115.625 1542.050781 114.917969 L 1522.421875 103.605469 C 1519.800781 102.238281 1519.769531 100.726563 1522.269531 99.128906 "/>
<path style=" stroke:none;fill-rule:nonzero;fill:rgb(97.599792%,85.499573%,16.099548%);fill-opacity:1;" d="M 1554.609375 80.546875 L 1574.960938 68.742188 C 1576.050781 68.191406 1577.210938 67.9375 1578.429688 67.988281 C 1579.648438 68.042969 1580.78125 68.390625 1581.820313 69.03125 L 1602.179688 80.664063 C 1603.191406 81.304688 1605.089844 83.019531 1602.179688 84.851563 L 1581.5 96.714844 C 1580.378906 97.304688 1579.179688 97.5625 1577.910156 97.492188 C 1576.628906 97.429688 1575.46875 97.039063 1574.410156 96.335938 L 1554.78125 85.027344 C 1552.109375 83.660156 1552.109375 82.148438 1554.609375 80.546875 "/>
<path style=" stroke:none;fill-rule:nonzero;fill:rgb(97.599792%,85.499573%,16.099548%);fill-opacity:1;" d="M 1521.960938 136.347656 L 1542.308594 124.714844 C 1543.398438 124.160156 1544.550781 123.910156 1545.769531 123.957031 C 1547 124.003906 1548.128906 124.34375 1549.171875 124.976563 L 1569.378906 136.605469 C 1570.371094 137.246094 1572.289063 138.992188 1569.378906 140.796875 L 1548.710938 152.6875 C 1547.570313 153.269531 1546.371094 153.523438 1545.101563 153.449219 C 1543.828125 153.378906 1542.671875 152.984375 1541.609375 152.28125 L 1521.980469 140.96875 C 1519.480469 139.546875 1519.460938 137.945313 1521.960938 136.347656 "/>
<path style=" stroke:none;fill-rule:nonzero;fill:rgb(97.599792%,85.499573%,16.099548%);fill-opacity:1;" d="M 1554.289063 117.765625 L 1574.640625 106.136719 C 1575.730469 105.574219 1576.890625 105.316406 1578.109375 105.363281 C 1579.328125 105.410156 1580.460938 105.753906 1581.5 106.398438 L 1601.859375 118.027344 C 1602.851563 118.667969 1604.761719 120.382813 1601.859375 122.214844 L 1581.179688 134.078125 C 1580.050781 134.667969 1578.851563 134.929688 1577.570313 134.863281 C 1576.289063 134.796875 1575.128906 134.40625 1574.058594 133.699219 L 1554.441406 122.390625 C 1551.820313 120.878906 1551.789063 119.363281 1554.289063 117.765625 "/>
<path style=" stroke:none;fill-rule:nonzero;fill:rgb(97.599792%,85.499573%,16.099548%);fill-opacity:1;" d="M 1586.621094 99.1875 L 1606.96875 87.382813 C 1608.070313 86.828125 1609.21875 86.574219 1610.441406 86.628906 C 1611.671875 86.679688 1612.800781 87.027344 1613.839844 87.671875 L 1634.191406 99.300781 C 1635.210938 99.941406 1637.101563 101.65625 1634.191406 103.488281 L 1613.550781 115.351563 C 1612.410156 115.945313 1611.210938 116.207031 1609.929688 116.136719 C 1608.660156 116.070313 1607.488281 115.683594 1606.421875 114.976563 L 1586.800781 103.664063 C 1584.148438 102.296875 1584.121094 100.785156 1586.621094 99.1875 "/>
<path style=" stroke:none;fill-rule:nonzero;fill:rgb(85.499573%,21.199036%,28.199768%);fill-opacity:1;" d="M 1552.140625 156.0625 L 1572.488281 144.429688 C 1573.269531 143.859375 1574.058594 143.832031 1574.871094 144.34375 C 1575.691406 144.851563 1576.011719 145.578125 1575.828125 146.523438 L 1575.828125 170.828125 C 1575.671875 172.070313 1575.21875 173.207031 1574.5 174.230469 C 1573.789063 175.257813 1572.871094 176.0625 1571.761719 176.648438 L 1551.929688 188.277344 C 1549.988281 189.382813 1548.300781 189.613281 1548.300781 186.242188 L 1548.300781 162.980469 C 1548.261719 161.5625 1548.578125 160.234375 1549.269531 158.992188 C 1549.960938 157.753906 1550.910156 156.773438 1552.140625 156.0625 "/>
<path style=" stroke:none;fill-rule:nonzero;fill:rgb(85.499573%,21.199036%,28.199768%);fill-opacity:1;" d="M 1584.300781 137.539063 L 1604.648438 125.90625 C 1606.070313 125.035156 1607.988281 125.589844 1607.988281 128 L 1607.988281 152.308594 C 1607.820313 153.550781 1607.371094 154.6875 1606.648438 155.714844 C 1605.929688 156.738281 1605.011719 157.542969 1603.890625 158.125 L 1584.089844 169.753906 C 1582.140625 170.828125 1580.460938 171.0625 1580.460938 167.71875 L 1580.460938 144.457031 C 1580.421875 143.042969 1580.75 141.714844 1581.441406 140.476563 C 1582.121094 139.238281 1583.078125 138.257813 1584.300781 137.539063 "/>
<path style=" stroke:none;fill-rule:nonzero;fill:rgb(85.499573%,21.199036%,28.199768%);fill-opacity:1;" d="M 1616.449219 118.984375 L 1636.808594 107.355469 C 1637.578125 106.789063 1638.378906 106.757813 1639.191406 107.269531 C 1640.011719 107.777344 1640.320313 108.503906 1640.148438 109.449219 L 1640.148438 133.757813 C 1639.980469 135 1639.53125 136.136719 1638.800781 137.160156 C 1638.078125 138.1875 1637.160156 138.988281 1636.050781 139.574219 L 1616.25 151.203125 C 1614.300781 152.308594 1612.621094 152.539063 1612.621094 149.167969 L 1612.46875 125.90625 C 1612.449219 124.476563 1612.800781 123.140625 1613.511719 121.898438 C 1614.230469 120.660156 1615.210938 119.691406 1616.449219 118.984375 "/>
<path style=" stroke:none;fill-rule:nonzero;fill:rgb(85.499573%,21.199036%,28.199768%);fill-opacity:1;" d="M 1552.199219 193.105469 L 1572.398438 181.472656 C 1573.179688 180.902344 1573.96875 180.875 1574.789063 181.386719 C 1575.601563 181.894531 1575.921875 182.621094 1575.75 183.566406 L 1575.75 207.871094 C 1575.578125 209.117188 1575.128906 210.257813 1574.410156 211.28125 C 1573.679688 212.308594 1572.761719 213.113281 1571.648438 213.691406 L 1551.851563 225.320313 C 1549.898438 226.425781 1548.210938 226.65625 1548.210938 223.285156 L 1548.070313 200.023438 C 1548.058594 198.574219 1548.429688 197.230469 1549.171875 195.988281 C 1549.910156 194.746094 1550.921875 193.78125 1552.199219 193.105469 "/>
<path style=" stroke:none;fill-rule:nonzero;fill:rgb(85.499573%,21.199036%,28.199768%);fill-opacity:1;" d="M 1584.351563 174.582031 L 1604.710938 162.949219 C 1606.128906 162.078125 1608.050781 162.628906 1608.050781 165.042969 L 1608.050781 189.351563 C 1607.890625 190.597656 1607.449219 191.730469 1606.730469 192.757813 C 1606.011719 193.78125 1605.089844 194.585938 1603.980469 195.167969 L 1584.148438 206.800781 C 1582.199219 207.871094 1580.511719 208.105469 1580.511719 204.761719 L 1580.511719 181.5 C 1580.46875 180.085938 1580.800781 178.757813 1581.488281 177.515625 C 1582.179688 176.273438 1583.128906 175.296875 1584.351563 174.582031 "/>
<path style=" stroke:none;fill-rule:nonzero;fill:rgb(85.499573%,21.199036%,28.199768%);fill-opacity:1;" d="M 1616.660156 156.03125 L 1637.011719 144.398438 C 1637.789063 143.832031 1638.578125 143.800781 1639.390625 144.3125 C 1640.210938 144.820313 1640.53125 145.550781 1640.359375 146.492188 L 1640.359375 170.800781 C 1640.191406 172.046875 1639.75 173.179688 1639.03125 174.207031 C 1638.308594 175.234375 1637.390625 176.039063 1636.28125 176.617188 L 1616.480469 188.246094 C 1614.5 189.351563 1612.851563 189.585938 1612.851563 186.210938 L 1612.699219 162.949219 C 1612.679688 161.523438 1613.019531 160.1875 1613.730469 158.949219 C 1614.441406 157.710938 1615.421875 156.734375 1616.660156 156.03125 "/>
<path style=" stroke:none;fill-rule:nonzero;fill:rgb(85.499573%,21.199036%,28.199768%);fill-opacity:1;" d="M 1552.21875 230.148438 L 1572.578125 218.515625 C 1574 217.644531 1575.921875 218.195313 1575.921875 220.609375 L 1575.921875 244.917969 C 1575.761719 246.160156 1575.320313 247.296875 1574.601563 248.324219 C 1573.878906 249.351563 1572.960938 250.152344 1571.851563 250.734375 L 1552.050781 262.363281 C 1550.070313 263.46875 1548.410156 263.671875 1548.410156 260.328125 L 1548.410156 237.066406 C 1548.378906 235.652344 1548.699219 234.328125 1549.378906 233.089844 C 1550.058594 231.851563 1551.011719 230.871094 1552.21875 230.148438 "/>
<path style=" stroke:none;fill-rule:nonzero;fill:rgb(85.499573%,21.199036%,28.199768%);fill-opacity:1;" d="M 1584.378906 211.625 L 1604.738281 199.996094 C 1606.191406 199.121094 1608.078125 199.675781 1608.078125 202.089844 L 1608.078125 226.367188 C 1607.910156 227.609375 1607.460938 228.742188 1606.730469 229.769531 C 1606.011719 230.796875 1605.089844 231.601563 1603.980469 232.183594 L 1584.179688 243.8125 C 1582.230469 244.890625 1580.539063 245.121094 1580.539063 241.75 L 1580.539063 218.484375 C 1580.511719 217.078125 1580.851563 215.761719 1581.53125 214.53125 C 1582.21875 213.304688 1583.171875 212.335938 1584.378906 211.625 "/>
<path style=" stroke:none;fill-rule:nonzero;fill:rgb(85.499573%,21.199036%,28.199768%);fill-opacity:1;" d="M 1616.660156 193.074219 L 1636.871094 181.441406 C 1638.320313 180.570313 1640.210938 181.125 1640.210938 183.539063 L 1640.210938 207.847656 C 1640.039063 209.089844 1639.601563 210.226563 1638.871094 211.253906 C 1638.148438 212.28125 1637.230469 213.082031 1636.109375 213.660156 L 1616.308594 225.289063 C 1614.359375 226.394531 1612.679688 226.601563 1612.679688 223.257813 L 1612.679688 199.996094 C 1612.648438 198.5625 1613 197.226563 1613.710938 195.984375 C 1614.429688 194.746094 1615.410156 193.773438 1616.660156 193.074219 "/>
<path style=" stroke:none;fill-rule:nonzero;fill:rgb(0%,45.098877%,71.798706%);fill-opacity:1;" d="M 1539.289063 156.03125 L 1518.929688 144.398438 C 1518.160156 143.832031 1517.359375 143.800781 1516.550781 144.3125 C 1515.730469 144.820313 1515.421875 145.550781 1515.589844 146.492188 L 1515.589844 170.800781 C 1515.761719 172.046875 1516.199219 173.183594 1516.929688 174.210938 C 1517.648438 175.238281 1518.570313 176.039063 1519.691406 176.617188 L 1539.488281 188.246094 C 1541.441406 189.351563 1543.121094 189.585938 1543.121094 186.210938 L 1543.121094 162.949219 C 1543.160156 161.535156 1542.828125 160.210938 1542.140625 158.96875 C 1541.460938 157.730469 1540.5 156.75 1539.289063 156.03125 "/>
<path style=" stroke:none;fill-rule:nonzero;fill:rgb(0%,45.098877%,71.798706%);fill-opacity:1;" d="M 1507.101563 137.507813 L 1486.738281 125.878906 C 1485.960938 125.324219 1485.171875 125.300781 1484.359375 125.804688 C 1483.550781 126.304688 1483.21875 127.027344 1483.371094 127.972656 L 1483.371094 152.28125 C 1483.558594 153.5 1484.011719 154.609375 1484.738281 155.609375 C 1485.460938 156.609375 1486.371094 157.390625 1487.46875 157.949219 L 1507.269531 169.582031 C 1509.21875 170.65625 1510.910156 170.886719 1510.910156 167.546875 L 1510.910156 144.28125 C 1510.921875 142.894531 1510.589844 141.597656 1509.910156 140.386719 C 1509.230469 139.175781 1508.289063 138.214844 1507.101563 137.507813 "/>
<path style=" stroke:none;fill-rule:nonzero;fill:rgb(0%,45.098877%,71.798706%);fill-opacity:1;" d="M 1474.941406 118.957031 L 1454.578125 107.328125 C 1453.808594 106.757813 1453.019531 106.730469 1452.199219 107.238281 C 1451.390625 107.75 1451.070313 108.476563 1451.238281 109.421875 L 1451.238281 133.726563 C 1451.398438 134.972656 1451.851563 136.109375 1452.558594 137.136719 C 1453.289063 138.164063 1454.199219 138.964844 1455.308594 139.546875 L 1475.140625 151.175781 C 1477.089844 152.28125 1478.78125 152.511719 1478.78125 149.140625 L 1478.78125 125.878906 C 1478.808594 124.460938 1478.488281 123.132813 1477.808594 121.894531 C 1477.121094 120.652344 1476.160156 119.675781 1474.941406 118.957031 "/>
<path style=" stroke:none;fill-rule:nonzero;fill:rgb(0%,45.098877%,71.798706%);fill-opacity:1;" d="M 1539.230469 193.074219 L 1518.871094 181.441406 C 1517.449219 180.570313 1515.53125 181.125 1515.53125 183.539063 L 1515.53125 207.847656 C 1515.691406 209.089844 1516.128906 210.222656 1516.851563 211.253906 C 1517.570313 212.277344 1518.488281 213.082031 1519.601563 213.660156 L 1539.398438 225.289063 C 1541.378906 226.394531 1543.039063 226.601563 1543.039063 223.257813 L 1543.039063 199.996094 C 1543.070313 198.582031 1542.75 197.257813 1542.070313 196.019531 C 1541.390625 194.777344 1540.441406 193.800781 1539.230469 193.074219 "/>
<path style=" stroke:none;fill-rule:nonzero;fill:rgb(0%,45.098877%,71.798706%);fill-opacity:1;" d="M 1507.070313 174.4375 L 1486.71875 162.804688 C 1485.289063 161.933594 1483.371094 162.484375 1483.371094 164.898438 L 1483.371094 189.179688 C 1483.550781 190.421875 1484 191.554688 1484.71875 192.582031 C 1485.441406 193.605469 1486.359375 194.410156 1487.46875 194.992188 L 1507.269531 206.621094 C 1509.21875 207.699219 1510.910156 207.933594 1510.910156 204.558594 L 1511.050781 181.296875 C 1511.070313 179.875 1510.71875 178.550781 1510 177.320313 C 1509.289063 176.089844 1508.308594 175.128906 1507.070313 174.4375 "/>
<path style=" stroke:none;fill-rule:nonzero;fill:rgb(0%,45.098877%,71.798706%);fill-opacity:1;" d="M 1474.910156 156.003906 L 1454.558594 144.371094 C 1453.101563 143.496094 1451.210938 144.050781 1451.210938 146.464844 L 1451.210938 170.773438 C 1451.398438 171.992188 1451.859375 173.101563 1452.578125 174.101563 C 1453.300781 175.101563 1454.210938 175.878906 1455.308594 176.441406 L 1475.109375 188.074219 C 1477.058594 189.179688 1478.75 189.382813 1478.75 186.035156 L 1478.890625 162.777344 C 1478.878906 161.371094 1478.519531 160.0625 1477.808594 158.851563 C 1477.101563 157.640625 1476.128906 156.691406 1474.910156 156.003906 "/>
<path style=" stroke:none;fill-rule:nonzero;fill:rgb(0%,45.098877%,71.798706%);fill-opacity:1;" d="M 1539.171875 230.117188 L 1518.808594 218.484375 C 1517.359375 217.613281 1515.46875 218.167969 1515.46875 220.582031 L 1515.46875 244.890625 C 1515.640625 246.132813 1516.089844 247.265625 1516.820313 248.292969 C 1517.539063 249.320313 1518.460938 250.125 1519.570313 250.703125 L 1539.371094 262.335938 C 1541.320313 263.410156 1543.011719 263.644531 1543.011719 260.300781 L 1543.011719 237.039063 C 1543.039063 235.621094 1542.71875 234.292969 1542.03125 233.054688 C 1541.339844 231.816406 1540.390625 230.835938 1539.171875 230.117188 "/>
<path style=" stroke:none;fill-rule:nonzero;fill:rgb(0%,45.098877%,71.798706%);fill-opacity:1;" d="M 1507.011719 211.566406 L 1486.660156 199.9375 C 1485.878906 199.367188 1485.089844 199.339844 1484.269531 199.847656 C 1483.460938 200.359375 1483.140625 201.085938 1483.308594 202.027344 L 1483.308594 226.339844 C 1483.480469 227.578125 1483.929688 228.710938 1484.640625 229.738281 C 1485.359375 230.765625 1486.28125 231.566406 1487.378906 232.152344 L 1507.210938 243.785156 C 1509.160156 244.886719 1510.851563 245.121094 1510.851563 241.75 L 1510.851563 218.484375 C 1510.890625 217.070313 1510.570313 215.742188 1509.878906 214.503906 C 1509.191406 213.261719 1508.230469 212.285156 1507.011719 211.566406 "/>
<path style=" stroke:none;fill-rule:nonzero;fill:rgb(0%,45.098877%,71.798706%);fill-opacity:1;" d="M 1474.851563 193.046875 L 1454.5 181.414063 C 1453.070313 180.542969 1451.148438 181.09375 1451.148438 183.507813 L 1451.148438 207.816406 C 1451.320313 209.058594 1451.761719 210.191406 1452.480469 211.21875 C 1453.199219 212.246094 1454.121094 213.050781 1455.21875 213.632813 L 1475.03125 225.261719 C 1477 226.339844 1478.660156 226.570313 1478.660156 223.226563 L 1478.808594 199.964844 C 1478.828125 198.535156 1478.480469 197.203125 1477.78125 195.964844 C 1477.070313 194.726563 1476.089844 193.75 1474.851563 193.046875 "/>
</g>
</svg>
